# xmcd
#
# Track frame offsets:
#	180
#	11418
#	28934
#	41304
#	59505
#	78009
#	110904
#	129557
#	146745
#	160756
#	171233
#	186375
#	197094
#	214497
#	229677
#
# Disc length: 3066 seconds
#
# Revision: 1
# Processed by: cddbd v1.4PL0 Copyright (c) Steve Scherf et al.
# Submitted via: audiograbber 1.80
#
DISCID=d60bf80f
DTITLE=Van Morrison - How Long Has This Been...
DYEAR=1900
DGENRE=
TTITLE0=I Will Be There
TTITLE1=The New Symphony Sid
TTITLE2=Early In The Morning
TTITLE3=Who Can I Turn To?
TTITLE4=Sack O'woe
TTITLE5=Moondance
TTITLE6=Centerpiece
TTITLE7=How Long Has This Been Going On
TTITLE8=Your Mind Is On Vacation
TTITLE9=All Saint's Day
TTITLE10=Blues In The Night
TTITLE11=Don't worry about a thing
TTITLE12=That's Life
TTITLE13=Haethrow Shuffle
TTITLE14=Georgie Fame and Friends
EXTD=
EXTT0=
EXTT1=
EXTT2=
EXTT3=
EXTT4=
EXTT5=
EXTT6=
EXTT7=
EXTT8=
EXTT9=
EXTT10=
EXTT11=
EXTT12=
EXTT13=
EXTT14=
PLAYORDER=
